<?xml version="1.0" encoding="UTF-8"?>
<svg width="24px" height="24px" viewBox="0 0 24 24" version="1.1" xmlns="http://www.w3.org/2000/svg" xmlns:xlink="http://www.w3.org/1999/xlink">
    <title>boy</title>
    <g id="全渠道营销" stroke="none" stroke-width="1" fill="none" fill-rule="evenodd">
        <g id="创建营销表单-表单内容" transform="translate(-364.000000, -290.000000)" fill="#999" fill-rule="nonzero">
            <g id="boy" transform="translate(364.000000, 290.000000)">
                <path d="M12.4285714,0 C18.819295,-1.17395687e-15 24,5.18070504 24,11.5714286 L24,12.4285714 C24,18.819295 18.819295,24 12.4285714,24 L11.5714286,24 C5.18070504,24 7.82637912e-16,18.819295 0,12.4285714 L0,11.5714286 C-7.82637912e-16,5.18070504 5.18070504,1.17395687e-15 11.5714286,0 L12.4285714,0 Z M12,1.71428571 C6.31935686,1.71428571 1.71428571,6.31935686 1.71428571,12 C1.71428571,17.6806431 6.31935686,22.2857143 12,22.2857143 C17.6806431,22.2857143 22.2857143,17.6806431 22.2857143,12 C22.2857143,6.31935686 17.6806431,1.71428571 12,1.71428571 Z" id="形状结合"></path>
                <path d="M12.4285714,6 C13.4515493,6 14.4326287,6.38730177 15.1559833,7.07670335 C15.8793379,7.76610492 16.2857143,8.70113412 16.2857143,9.67609518 C16.2857143,11.4739361 14.9315525,12.9703413 13.1422993,13.2893801 L13.1414286,14.818 L15.0707143,14.8180333 C15.5126786,14.8180333 15.7520759,15.0110921 15.7889062,15.3972097 L15.7939286,15.5073011 C15.7939286,15.966813 15.5528571,16.196569 15.0707143,16.196569 L13.1414286,16.196 L13.1421428,18.167875 C13.1421428,18.5890943 12.9395759,18.8172547 12.534442,18.8523563 L12.4189286,18.8571429 C11.9367857,18.8571429 11.6957143,18.6273869 11.6957143,18.167875 L11.6954286,16.196 L9.76714284,16.196569 C9.32517856,16.196569 9.08578124,16.0035102 9.04895088,15.6173925 L9.04392856,15.5073011 C9.04392856,15.0477892 9.28499999,14.8180333 9.76714284,14.8180333 L11.6954286,14.818 L11.6959172,13.2859585 C9.97908314,12.9713277 8.66721323,11.5718198 8.57644746,9.86526654 L8.57142857,9.67609517 C8.57142857,7.64584387 10.2983302,6 12.4285714,6 Z M12.4285714,7.37853569 C11.7892102,7.37853569 11.1760356,7.6205993 10.723939,8.05147528 C10.2718424,8.48235127 10.0178571,9.06674452 10.0178571,9.67609518 C10.0178571,10.9450022 11.0971707,11.9736546 12.4285714,11.9736546 C13.7599722,11.9736546 14.8392857,10.9450022 14.8392857,9.67609516 C14.8392857,8.4071881 13.7599721,7.37853569 12.4285714,7.37853569 Z" id="形状结合" transform="translate(12.428571, 12.428571) rotate(40.000000) translate(-12.428571, -12.428571) "></path>
            </g>
        </g>
    </g>
</svg>