<?xml version="1.0" encoding="UTF-8"?>
<svg width="24px" height="24px" viewBox="0 0 24 24" version="1.1" xmlns="http://www.w3.org/2000/svg" xmlns:xlink="http://www.w3.org/1999/xlink">
    <title>girl</title>
    <g id="全渠道营销" stroke="none" stroke-width="1" fill="none" fill-rule="evenodd">
        <g id="创建营销表单-表单内容" transform="translate(-364.000000, -230.000000)" fill="#FF6700" fill-rule="nonzero">
            <g id="girl" transform="translate(364.000000, 230.000000)">
                <path d="M12.440625,5.14285714 C12.6177064,5.14285714 12.7872595,5.21103989 12.9107143,5.33189514 L12.9107143,5.33189514 L15.6685714,7.97108365 C15.8505677,8.12505781 15.9279588,8.36235522 15.8695673,8.58737938 C15.8111758,8.81240354 15.6266171,8.9880993 15.3902417,9.04368673 C15.1538663,9.09927415 14.9045985,9.02559955 14.7428571,8.85234312 L14.7428571,8.85234312 L13.1564286,7.34485714 L13.1572439,10.7216008 C14.876031,11.0344397 16.1898595,12.4331993 16.2806954,14.1391293 L16.2857143,14.3280855 C16.2857143,16.3560279 14.5588126,18 12.4285714,18 C10.2983303,18 8.57142857,16.3560279 8.57142857,14.3280855 C8.57142857,12.5339569 9.92307637,11.0403623 11.7098598,10.7198008 L11.7094286,7.33685714 L10.1191071,8.85234312 C9.97736748,8.98657335 9.78037935,9.05036162 9.58520798,9.02930356 L9.48803788,9.01163731 C9.26289379,8.95360697 9.0873726,8.78563986 9.02759145,8.57100758 C8.96781029,8.3563753 9.03285135,8.12768559 9.19821428,7.97108365 L9.19821428,7.97108365 L11.9705357,5.33189514 C12.0939905,5.21103989 12.2635436,5.14285714 12.440625,5.14285714 Z M12.4285714,12.033139 C11.7892102,12.033139 11.1760356,12.2749273 10.723939,12.7053133 C10.2718424,13.1356993 10.0178571,13.7194279 10.0178571,14.3280855 C10.0178571,15.5955495 11.0971707,16.6230321 12.4285714,16.6230321 C13.7599721,16.6230321 14.8392857,15.5955495 14.8392857,14.3280856 C14.8392857,13.0606216 13.7599722,12.033139 12.4285714,12.033139 Z" id="形状结合" transform="translate(12.428571, 11.571429) rotate(40.000000) translate(-12.428571, -11.571429) "></path>
                <path d="M12.4285714,0 C18.819295,-1.17395687e-15 24,5.18070504 24,11.5714286 L24,12.4285714 C24,18.819295 18.819295,24 12.4285714,24 L11.5714286,24 C5.18070504,24 7.82637912e-16,18.819295 0,12.4285714 L0,11.5714286 C-7.82637912e-16,5.18070504 5.18070504,1.17395687e-15 11.5714286,0 L12.4285714,0 Z M12,1.71428571 C6.31935686,1.71428571 1.71428571,6.31935686 1.71428571,12 C1.71428571,17.6806431 6.31935686,22.2857143 12,22.2857143 C17.6806431,22.2857143 22.2857143,17.6806431 22.2857143,12 C22.2857143,6.31935686 17.6806431,1.71428571 12,1.71428571 Z" id="形状结合"></path>
            </g>
        </g>
    </g>
</svg>